<mxfile host="app.diagrams.net" modified="2024-04-20T20:21:12.634Z" agent="Mozilla/5.0 (Windows NT 10.0; Win64; x64) AppleWebKit/537.36 (KHTML, like Gecko) Chrome/124.0.0.0 Safari/537.36" version="24.2.7" etag="R8tkp-hXiDmQ9DN1YFZj" type="github">
  <diagram name="Page-1" id="6-k2rCovVA07ORIqMRXK">
    <mxGraphModel>
      <root>
        <mxCell id="0" />
        <mxCell id="1" parent="0" />
      </root>
    </mxGraphModel>
  </diagram>
</mxfile>
